<svg width="16" height="8" viewBox="0 0 16 8" fill="none" xmlns="http://www.w3.org/2000/svg">
<path d="M0.183317 3.54332C0.183505 3.54313 0.183661 3.5429 0.18388 3.54271L3.44958 0.187869C3.69423 -0.0634537 4.08994 -0.0625185 4.33347 0.190062C4.57697 0.442611 4.57603 0.851095 4.33138 1.10245L2.13879 3.35484H15.3748C15.7199 3.35484 15.9998 3.64368 15.9998 4C15.9998 4.35632 15.7199 4.64516 15.3748 4.64516H2.13882L4.33135 6.89755C4.576 7.1489 4.57694 7.55739 4.33344 7.80994C4.08991 8.06255 3.69417 8.06342 3.44955 7.81213L0.183848 4.45729C0.183661 4.4571 0.183504 4.45687 0.183286 4.45668C-0.061491 4.20448 -0.0607109 3.79468 0.183317 3.54332Z" fill="#303B43"/>
</svg>
