<svg width="16" height="8" viewBox="0 0 16 8" fill="none" xmlns="http://www.w3.org/2000/svg">
<path d="M15.8164 3.54332C15.8163 3.54313 15.8161 3.5429 15.8159 3.54271L12.5502 0.187869C12.3055 -0.0634537 11.9098 -0.0625185 11.6663 0.190062C11.4228 0.442611 11.4237 0.851095 11.6684 1.10245L13.861 3.35484H0.62499C0.279808 3.35484 0 3.64368 0 4C0 4.35632 0.279808 4.64516 0.62499 4.64516H13.8609L11.6684 6.89755C11.4238 7.1489 11.4228 7.55739 11.6663 7.80994C11.9098 8.06255 12.3056 8.06342 12.5502 7.81213L15.8159 4.45729C15.8161 4.4571 15.8163 4.45687 15.8165 4.45668C16.0612 4.20448 16.0605 3.79468 15.8164 3.54332Z" fill="#FF4E4E"/>
</svg>
