<svg width="84" height="16" viewBox="0 0 84 16" fill="none" xmlns="http://www.w3.org/2000/svg">
<path d="M8.64258 11.2695C8.64258 10.7161 8.44727 10.293 8.05664 10C7.66602 9.70052 6.96289 9.38802 5.94727 9.0625C4.93164 8.73047 4.1276 8.40495 3.53516 8.08594C1.92057 7.21354 1.11328 6.03841 1.11328 4.56055C1.11328 3.79232 1.32812 3.10872 1.75781 2.50977C2.19401 1.9043 2.81576 1.43229 3.62305 1.09375C4.43685 0.755208 5.34831 0.585938 6.35742 0.585938C7.37305 0.585938 8.27799 0.771484 9.07227 1.14258C9.86654 1.50716 10.4818 2.02474 10.918 2.69531C11.3607 3.36589 11.582 4.1276 11.582 4.98047H8.65234C8.65234 4.32943 8.44727 3.82487 8.03711 3.4668C7.62695 3.10221 7.05078 2.91992 6.30859 2.91992C5.59245 2.91992 5.03581 3.07292 4.63867 3.37891C4.24154 3.67839 4.04297 4.07552 4.04297 4.57031C4.04297 5.03255 4.27409 5.41992 4.73633 5.73242C5.20508 6.04492 5.89193 6.33789 6.79688 6.61133C8.46354 7.11263 9.67773 7.73438 10.4395 8.47656C11.2012 9.21875 11.582 10.1432 11.582 11.25C11.582 12.4805 11.1165 13.4473 10.1855 14.1504C9.25456 14.847 8.0013 15.1953 6.42578 15.1953C5.33203 15.1953 4.33594 14.9967 3.4375 14.5996C2.53906 14.196 1.85221 13.6458 1.37695 12.9492C0.908203 12.2526 0.673828 11.4453 0.673828 10.5273H3.61328C3.61328 12.0964 4.55078 12.8809 6.42578 12.8809C7.1224 12.8809 7.66602 12.7409 8.05664 12.4609C8.44727 12.1745 8.64258 11.7773 8.64258 11.2695ZM19.7168 13.9258C19.0202 14.7721 18.0566 15.1953 16.8262 15.1953C15.6934 15.1953 14.8275 14.8698 14.2285 14.2188C13.6361 13.5677 13.3333 12.6139 13.3203 11.3574V4.43359H16.1426V11.2598C16.1426 12.36 16.6439 12.9102 17.6465 12.9102C18.6035 12.9102 19.2611 12.5781 19.6191 11.9141V4.43359H22.4512V15H19.7949L19.7168 13.9258ZM27.1777 4.43359L27.2656 5.6543C28.0208 4.71029 29.0332 4.23828 30.3027 4.23828C31.4225 4.23828 32.2559 4.56706 32.8027 5.22461C33.3496 5.88216 33.6296 6.86523 33.6426 8.17383V15H30.8203V8.24219C30.8203 7.64323 30.6901 7.21029 30.4297 6.94336C30.1693 6.66992 29.7363 6.5332 29.1309 6.5332C28.3366 6.5332 27.7409 6.87174 27.3438 7.54883V15H24.5215V4.43359H27.1777ZM46.8555 13.1348C46.3737 13.8249 45.6999 14.3424 44.834 14.6875C43.9746 15.026 42.972 15.1953 41.8262 15.1953C40.6673 15.1953 39.6387 14.9251 38.7402 14.3848C37.8418 13.8379 37.1452 13.0632 36.6504 12.0605C36.1621 11.0579 35.9115 9.89583 35.8984 8.57422V7.33398C35.8984 5.19206 36.3965 3.5319 37.3926 2.35352C38.3952 1.17513 39.8014 0.585938 41.6113 0.585938C43.0957 0.585938 44.2904 0.966797 45.1953 1.72852C46.1003 2.48372 46.6536 3.55794 46.8555 4.95117H44.9805C44.6289 3.06966 43.5091 2.12891 41.6211 2.12891C40.3646 2.12891 39.4108 2.57161 38.7598 3.45703C38.1152 4.33594 37.7897 5.61198 37.7832 7.28516V8.44727C37.7832 10.0423 38.1478 11.3118 38.877 12.2559C39.6061 13.1934 40.5924 13.6621 41.8359 13.6621C42.5391 13.6621 43.1543 13.584 43.6816 13.4277C44.209 13.2715 44.6452 13.0078 44.9902 12.6367V9.44336H41.6992V7.91992H46.8555V13.1348ZM51.6699 15H49.8633V0H51.6699V15ZM61.0938 15C60.9896 14.7917 60.9049 14.4206 60.8398 13.8867C60 14.7591 58.9974 15.1953 57.832 15.1953C56.7904 15.1953 55.9342 14.9023 55.2637 14.3164C54.5996 13.724 54.2676 12.9753 54.2676 12.0703C54.2676 10.9701 54.6842 10.1172 55.5176 9.51172C56.3574 8.89974 57.5358 8.59375 59.0527 8.59375H60.8105V7.76367C60.8105 7.13216 60.6217 6.63086 60.2441 6.25977C59.8665 5.88216 59.3099 5.69336 58.5742 5.69336C57.9297 5.69336 57.3893 5.85612 56.9531 6.18164C56.5169 6.50716 56.2988 6.90104 56.2988 7.36328H54.4824C54.4824 6.83594 54.668 6.32812 55.0391 5.83984C55.4167 5.34505 55.9245 4.95443 56.5625 4.66797C57.207 4.38151 57.9134 4.23828 58.6816 4.23828C59.8991 4.23828 60.8529 4.54427 61.543 5.15625C62.2331 5.76172 62.5911 6.59831 62.6172 7.66602V12.5293C62.6172 13.4993 62.7409 14.2708 62.9883 14.8438V15H61.0938ZM58.0957 13.623C58.6621 13.623 59.1992 13.4766 59.707 13.1836C60.2148 12.8906 60.5827 12.5098 60.8105 12.041V9.87305H59.3945C57.181 9.87305 56.0742 10.5208 56.0742 11.8164C56.0742 12.3828 56.263 12.8255 56.6406 13.1445C57.0182 13.4635 57.5033 13.623 58.0957 13.623ZM71.6016 12.1973C71.6016 11.709 71.416 11.3314 71.0449 11.0645C70.6803 10.791 70.0391 10.5566 69.1211 10.3613C68.2096 10.166 67.4837 9.93164 66.9434 9.6582C66.4095 9.38477 66.0124 9.05924 65.752 8.68164C65.498 8.30404 65.3711 7.85482 65.3711 7.33398C65.3711 6.4681 65.7357 5.73568 66.4648 5.13672C67.2005 4.53776 68.138 4.23828 69.2773 4.23828C70.4753 4.23828 71.4453 4.54753 72.1875 5.16602C72.9362 5.78451 73.3105 6.57552 73.3105 7.53906H71.4941C71.4941 7.04427 71.2826 6.61784 70.8594 6.25977C70.4427 5.90169 69.9154 5.72266 69.2773 5.72266C68.6198 5.72266 68.1055 5.86589 67.7344 6.15234C67.3633 6.4388 67.1777 6.81315 67.1777 7.27539C67.1777 7.71159 67.3503 8.04036 67.6953 8.26172C68.0404 8.48307 68.6621 8.69466 69.5605 8.89648C70.4655 9.09831 71.1979 9.33919 71.7578 9.61914C72.3177 9.89909 72.7311 10.2376 72.998 10.6348C73.2715 11.0254 73.4082 11.5039 73.4082 12.0703C73.4082 13.0143 73.0306 13.7728 72.2754 14.3457C71.5202 14.9121 70.5404 15.1953 69.3359 15.1953C68.4896 15.1953 67.7409 15.0456 67.0898 14.7461C66.4388 14.4466 65.9277 14.0299 65.5566 13.4961C65.1921 12.9557 65.0098 12.373 65.0098 11.748H66.8164C66.849 12.3535 67.0898 12.8353 67.5391 13.1934C67.9948 13.5449 68.5938 13.7207 69.3359 13.7207C70.0195 13.7207 70.5664 13.584 70.9766 13.3105C71.3932 13.0306 71.6016 12.6595 71.6016 12.1973ZM81.9141 12.1973C81.9141 11.709 81.7285 11.3314 81.3574 11.0645C80.9928 10.791 80.3516 10.5566 79.4336 10.3613C78.5221 10.166 77.7962 9.93164 77.2559 9.6582C76.722 9.38477 76.3249 9.05924 76.0645 8.68164C75.8105 8.30404 75.6836 7.85482 75.6836 7.33398C75.6836 6.4681 76.0482 5.73568 76.7773 5.13672C77.513 4.53776 78.4505 4.23828 79.5898 4.23828C80.7878 4.23828 81.7578 4.54753 82.5 5.16602C83.2487 5.78451 83.623 6.57552 83.623 7.53906H81.8066C81.8066 7.04427 81.5951 6.61784 81.1719 6.25977C80.7552 5.90169 80.2279 5.72266 79.5898 5.72266C78.9323 5.72266 78.418 5.86589 78.0469 6.15234C77.6758 6.4388 77.4902 6.81315 77.4902 7.27539C77.4902 7.71159 77.6628 8.04036 78.0078 8.26172C78.3529 8.48307 78.9746 8.69466 79.873 8.89648C80.778 9.09831 81.5104 9.33919 82.0703 9.61914C82.6302 9.89909 83.0436 10.2376 83.3105 10.6348C83.584 11.0254 83.7207 11.5039 83.7207 12.0703C83.7207 13.0143 83.3431 13.7728 82.5879 14.3457C81.8327 14.9121 80.8529 15.1953 79.6484 15.1953C78.8021 15.1953 78.0534 15.0456 77.4023 14.7461C76.7513 14.4466 76.2402 14.0299 75.8691 13.4961C75.5046 12.9557 75.3223 12.373 75.3223 11.748H77.1289C77.1615 12.3535 77.4023 12.8353 77.8516 13.1934C78.3073 13.5449 78.9062 13.7207 79.6484 13.7207C80.332 13.7207 80.8789 13.584 81.2891 13.3105C81.7057 13.0306 81.9141 12.6595 81.9141 12.1973Z" fill="#303B43"/>
</svg>
