<svg width="13" height="12" viewBox="0 0 13 12" fill="none" xmlns="http://www.w3.org/2000/svg">
<path d="M10.3406 8.89696H5.46903C4.76651 8.89696 4.14361 8.42891 3.9535 7.75847L2.30688 2.093C2.24838 1.88785 2.05393 1.74705 1.83186 1.74705H0.541649C0.242117 1.74705 0 1.50065 0 1.19706C0 0.893461 0.242117 0.647064 0.541649 0.647064H1.83186C2.53438 0.647064 3.15673 1.11511 3.34685 1.78555L3.65505 2.84704H11.9396C12.2776 2.84704 12.5982 3.01038 12.797 3.28428C12.9942 3.55598 13.051 3.89587 12.953 4.21707L11.8356 7.81842C11.6167 8.46851 11.0171 8.89696 10.3406 8.89696ZM11.9401 3.94702H11.9455H11.9401Z" fill="white"/>
<path d="M5.95811 11.6471C5.36068 11.6471 4.87482 11.1537 4.87482 10.5471C4.87482 9.94043 5.36068 9.44708 5.95811 9.44708C6.55555 9.44708 7.04141 9.94043 7.04141 10.5471C7.04141 11.1537 6.55555 11.6471 5.95811 11.6471ZM5.95811 10.5465V10.5471V10.5465Z" fill="white"/>
<path d="M9.74968 11.6471C9.15224 11.6471 8.66638 11.1537 8.66638 10.5471C8.66638 9.94043 9.15224 9.44708 9.74968 9.44708C10.3471 9.44708 10.833 9.94043 10.833 10.5471C10.833 11.1537 10.3471 11.6471 9.74968 11.6471ZM9.74968 10.5465V10.5471V10.5465Z" fill="white"/>
</svg>
