<svg width="17" height="14" viewBox="0 0 17 14" fill="none" xmlns="http://www.w3.org/2000/svg">
<path d="M13.5223 10.4999H7.15181C6.23313 10.4999 5.41857 9.90421 5.16996 9.05092L3.01669 1.84028C2.9402 1.57919 2.68591 1.39999 2.3955 1.39999H0.70831C0.316615 1.39999 0 1.08639 0 0.699994C0 0.313597 0.316615 0 0.70831 0H2.3955C3.31418 0 4.12803 0.595695 4.37665 1.44899L4.77968 2.79998H15.6133C16.0553 2.79998 16.4746 3.00787 16.7345 3.35647C16.9924 3.70227 17.0667 4.13486 16.9385 4.54366L15.4773 9.12722C15.1911 9.95461 14.407 10.4999 13.5223 10.4999ZM15.614 4.19996H15.6211H15.614Z" fill="#FF4E4E"/>
<path d="M7.79144 14.0001C7.01017 14.0001 6.37482 13.3722 6.37482 12.6001C6.37482 11.828 7.01017 11.2001 7.79144 11.2001C8.5727 11.2001 9.20805 11.828 9.20805 12.6001C9.20805 13.3722 8.5727 14.0001 7.79144 14.0001ZM7.79144 12.5994V12.6001V12.5994Z" fill="#FF4E4E"/>
<path d="M12.7496 14.0001C11.9683 14.0001 11.3329 13.3722 11.3329 12.6001C11.3329 11.828 11.9683 11.2001 12.7496 11.2001C13.5308 11.2001 14.1662 11.828 14.1662 12.6001C14.1662 13.3722 13.5308 14.0001 12.7496 14.0001ZM12.7496 12.5994V12.6001V12.5994Z" fill="#FF4E4E"/>
</svg>
